<svg id="Capa_1" data-name="Capa 1" xmlns="http://www.w3.org/2000/svg" viewBox="0 0 340 70"><defs><style>.cls-1{fill:#939598;}.cls-2{fill:#58585a;}.cls-3{fill:#f00020;}.cls-4{fill:#ffc500;}.cls-5{fill:#2c389d;}</style></defs><path class="cls-1" d="M86.74,21.39a12.36,12.36,0,0,1,2.46.25,5.85,5.85,0,0,1,2.08.82A4.43,4.43,0,0,1,92.72,24a4.79,4.79,0,0,1,.54,2.38A4.85,4.85,0,0,1,93,27.94a4.69,4.69,0,0,1-.73,1.36,4.62,4.62,0,0,1-1.11,1.05,4.17,4.17,0,0,1-1.44.59V31a4.82,4.82,0,0,1,3.14,1.61A5,5,0,0,1,94,36a7.58,7.58,0,0,1-.08,1.1,5.29,5.29,0,0,1-1.08,2.52,4.44,4.44,0,0,1-1.3,1.1,8,8,0,0,1-2,.77,11.64,11.64,0,0,1-2.83.3H78.13V21.39Zm0,8.93a6.72,6.72,0,0,0,2-.27,4.13,4.13,0,0,0,1.43-.75A3,3,0,0,0,91,28.21a3.23,3.23,0,0,0,.29-1.34q0-3.82-4.59-3.82H80.07v7.27Zm0,9.78a11.24,11.24,0,0,0,2.05-.19,4.64,4.64,0,0,0,1.71-.67,3.5,3.5,0,0,0,1.17-1.3,4.4,4.4,0,0,0,.43-2A3.4,3.4,0,0,0,90.71,33a6.82,6.82,0,0,0-4-1H80.07V40.1Z"/><path class="cls-1" d="M106.8,28.93a3.81,3.81,0,0,0-1.25-1.43,4.46,4.46,0,0,0-1.74-.7,9.74,9.74,0,0,0-1.94-.19,8.9,8.9,0,0,0-2.33.29,5.16,5.16,0,0,0-1.84.88,4.09,4.09,0,0,0-1.24,1.54,5.75,5.75,0,0,0-.54,2.22h1.79a3.22,3.22,0,0,1,1.14-2.61,4.56,4.56,0,0,1,2.8-.81,8.7,8.7,0,0,1,1.49.13,3.36,3.36,0,0,1,1.23.47,2.39,2.39,0,0,1,.82.93,3.27,3.27,0,0,1,.3,1.49,2.6,2.6,0,0,1-.15,1,1.5,1.5,0,0,1-.45.59,1.77,1.77,0,0,1-.71.3c-.28,0-.62.1-1,.14-1,.11-1.92.23-2.86.36a9.94,9.94,0,0,0-2.54.64A4.28,4.28,0,0,0,96,35.46a3.86,3.86,0,0,0-.68,2.41,4.61,4.61,0,0,0,.38,1.93,3.78,3.78,0,0,0,1.06,1.34,4.26,4.26,0,0,0,1.57.76,7,7,0,0,0,1.92.25,7.88,7.88,0,0,0,1.87-.2,5.62,5.62,0,0,0,1.39-.57,5.18,5.18,0,0,0,1.12-.93,11.42,11.42,0,0,0,1-1.27h.06v2.57h1.65V31.34A5.11,5.11,0,0,0,106.8,28.93Zm-1.31,7.12a4.35,4.35,0,0,1-.41,1.94A4.67,4.67,0,0,1,104,39.44a4.85,4.85,0,0,1-1.64.91,6.16,6.16,0,0,1-2,.32,3.9,3.9,0,0,1-1.22-.2,3.33,3.33,0,0,1-1.06-.59,3,3,0,0,1-.72-.91,2.51,2.51,0,0,1-.28-1.21,2.13,2.13,0,0,1,.65-1.67,4.27,4.27,0,0,1,1.63-.9,13.64,13.64,0,0,1,2.21-.47c.81-.1,1.6-.22,2.36-.36a6.12,6.12,0,0,0,.85-.19,1.08,1.08,0,0,0,.66-.46h0Z"/><path class="cls-1" d="M111.94,27v2.54h0a4.35,4.35,0,0,1,1.83-2.16,5.35,5.35,0,0,1,2.88-.81,7.21,7.21,0,0,1,2.58.4,4,4,0,0,1,1.66,1.13,4.16,4.16,0,0,1,.89,1.78,10.05,10.05,0,0,1,.25,2.36v9.47h-1.79V32.57a8.73,8.73,0,0,0-.17-1.75,3.76,3.76,0,0,0-.6-1.41,3,3,0,0,0-1.16-.95,4.33,4.33,0,0,0-1.81-.34,4.51,4.51,0,0,0-1.92.39,4.18,4.18,0,0,0-1.43,1,4.91,4.91,0,0,0-.91,1.6,6.23,6.23,0,0,0-.35,2v8.58h-1.8V27Z"/><path class="cls-1" d="M133.77,29.06a3.94,3.94,0,0,0-2.79-.94,4.51,4.51,0,0,0-2.25.54,5,5,0,0,0-1.62,1.43,6.45,6.45,0,0,0-1,2,8.15,8.15,0,0,0,0,4.59,6.45,6.45,0,0,0,1,2,4.92,4.92,0,0,0,1.62,1.42,4.52,4.52,0,0,0,2.25.55,3.92,3.92,0,0,0,1.56-.32,4.21,4.21,0,0,0,1.32-.87,4.71,4.71,0,0,0,.94-1.32,5,5,0,0,0,.45-1.69h1.8a6.78,6.78,0,0,1-2,4.18,5.74,5.74,0,0,1-4.1,1.5,6.87,6.87,0,0,1-3-.62,6.21,6.21,0,0,1-2.18-1.66,7.29,7.29,0,0,1-1.34-2.47,10,10,0,0,1,0-6,7.1,7.1,0,0,1,1.34-2.47A6.5,6.5,0,0,1,128,27.24a6.73,6.73,0,0,1,3-.63,6.37,6.37,0,0,1,4,1.26,5.31,5.31,0,0,1,2,3.79h-1.79A4.93,4.93,0,0,0,133.77,29.06Z"/><path class="cls-1" d="M148,27.24a6.6,6.6,0,0,1,2.18,1.68,7.27,7.27,0,0,1,1.34,2.47,10.26,10.26,0,0,1,0,6,7.46,7.46,0,0,1-1.34,2.47A6.3,6.3,0,0,1,148,41.53a7.47,7.47,0,0,1-6,0,6.3,6.3,0,0,1-2.18-1.66,7.29,7.29,0,0,1-1.34-2.47,10,10,0,0,1,0-6,7.1,7.1,0,0,1,1.34-2.47,6.6,6.6,0,0,1,2.18-1.68,7.36,7.36,0,0,1,6,0Zm-5.23,1.42a4.82,4.82,0,0,0-1.61,1.43,6.47,6.47,0,0,0-1,2,8.15,8.15,0,0,0,0,4.59,6.47,6.47,0,0,0,1,2,4.79,4.79,0,0,0,1.61,1.42,4.52,4.52,0,0,0,2.25.55,4.57,4.57,0,0,0,2.25-.55,4.89,4.89,0,0,0,1.61-1.42,6.47,6.47,0,0,0,1-2,8.15,8.15,0,0,0,0-4.59,6.47,6.47,0,0,0-1-2,4.92,4.92,0,0,0-1.61-1.43,4.57,4.57,0,0,0-2.25-.54A4.51,4.51,0,0,0,142.81,28.66Z"/><path class="cls-2" d="M171,21.39a12.73,12.73,0,0,1,2.65.26,5.67,5.67,0,0,1,2,.84,4,4,0,0,1,1.33,1.56,5.47,5.47,0,0,1,.47,2.39,4.52,4.52,0,0,1-.7,2.57,5.18,5.18,0,0,1-2.07,1.68,4.89,4.89,0,0,1,2.81,1.89,5.64,5.64,0,0,1,.93,3.27,5.58,5.58,0,0,1-.6,2.66,5.21,5.21,0,0,1-1.61,1.84A7.18,7.18,0,0,1,174,41.41a10.86,10.86,0,0,1-2.67.34h-9.86V21.39Zm-.57,8.24a3.19,3.19,0,0,0,2-.57,2.12,2.12,0,0,0,.77-1.85,2.41,2.41,0,0,0-.25-1.17,1.88,1.88,0,0,0-.69-.71,2.93,2.93,0,0,0-1-.36,7.23,7.23,0,0,0-1.15-.1h-4.19v4.76Zm.25,8.64a5.73,5.73,0,0,0,1.26-.13,2.91,2.91,0,0,0,1.05-.43,2.12,2.12,0,0,0,.73-.81,2.8,2.8,0,0,0,.27-1.31,2.64,2.64,0,0,0-.88-2.24,3.82,3.82,0,0,0-2.34-.67h-4.87v5.59Z"/><path class="cls-2" d="M180.49,24.73V21.39h4v3.34Zm4,2.28V41.75h-4V27Z"/><path class="cls-2" d="M194.06,29.66a2.84,2.84,0,0,0-1.62.44,3.53,3.53,0,0,0-1.07,1.14,5,5,0,0,0-.59,1.54,8.68,8.68,0,0,0-.17,1.67,8.44,8.44,0,0,0,.17,1.63,5,5,0,0,0,.56,1.49,3.13,3.13,0,0,0,1,1.1,2.9,2.9,0,0,0,1.59.43,2.94,2.94,0,0,0,2.24-.82,3.88,3.88,0,0,0,1-2.18h3.9a6.73,6.73,0,0,1-2.28,4.48A7.39,7.39,0,0,1,194,42.12a8,8,0,0,1-3-.56A6.6,6.6,0,0,1,188.62,40a7.24,7.24,0,0,1-1.52-2.38,8.3,8.3,0,0,1-.54-3,9.9,9.9,0,0,1,.5-3.18,7.08,7.08,0,0,1,1.47-2.53,6.74,6.74,0,0,1,2.37-1.67,8,8,0,0,1,3.19-.6,9.58,9.58,0,0,1,2.52.34,6.92,6.92,0,0,1,2.17,1,5.75,5.75,0,0,1,1.55,1.74A5.62,5.62,0,0,1,201,32.2h-4A2.71,2.71,0,0,0,194.06,29.66Z"/><path class="cls-2" d="M207,38.21a4.12,4.12,0,0,0,4.73.27,2.57,2.57,0,0,0,1.09-1.29h3.56A6.77,6.77,0,0,1,213.76,41a7.74,7.74,0,0,1-4.28,1.14,8.39,8.39,0,0,1-3.13-.56A6.41,6.41,0,0,1,204,40a7,7,0,0,1-1.5-2.45,9,9,0,0,1-.52-3.14,8.63,8.63,0,0,1,.54-3.08A7.08,7.08,0,0,1,204,28.85a7.18,7.18,0,0,1,2.38-1.64,7.59,7.59,0,0,1,3.06-.6,6.93,6.93,0,0,1,3.28.73,6.38,6.38,0,0,1,2.29,1.95,8.13,8.13,0,0,1,1.3,2.79,10.49,10.49,0,0,1,.29,3.28H206A4.1,4.1,0,0,0,207,38.21Zm4.58-7.75a2.86,2.86,0,0,0-2.21-.8,3.47,3.47,0,0,0-1.61.33,3.15,3.15,0,0,0-1,.81,2.84,2.84,0,0,0-.54,1,4.35,4.35,0,0,0-.19,1h6.59A4.7,4.7,0,0,0,211.58,30.46Z"/><path class="cls-2" d="M222.17,27v2h.08a4.64,4.64,0,0,1,2-1.86,5.74,5.74,0,0,1,2.51-.59,6.93,6.93,0,0,1,2.66.44,4.06,4.06,0,0,1,1.64,1.23,4.7,4.7,0,0,1,.84,1.91,12,12,0,0,1,.24,2.49v9.07h-4V33.42a5.17,5.17,0,0,0-.57-2.72,2.23,2.23,0,0,0-2-.9,2.78,2.78,0,0,0-2.39,1,5.4,5.4,0,0,0-.74,3.23v7.73h-4.05V27Z"/><path class="cls-2" d="M242.6,27v2.71h-3V37a1.94,1.94,0,0,0,.34,1.36,2,2,0,0,0,1.37.35q.35,0,.66,0a5.58,5.58,0,0,0,.59-.09v3.14c-.34,0-.72.09-1.14.11l-1.22,0a11.2,11.2,0,0,1-1.78-.13,4.1,4.1,0,0,1-1.49-.5,2.62,2.62,0,0,1-1-1,3.88,3.88,0,0,1-.37-1.8V29.72h-2.45V27h2.45V22.59h4V27Z"/><path class="cls-2" d="M248.16,38.21a4.12,4.12,0,0,0,4.73.27A2.57,2.57,0,0,0,254,37.19h3.56A6.77,6.77,0,0,1,254.92,41a7.74,7.74,0,0,1-4.28,1.14,8.39,8.39,0,0,1-3.13-.56A6.49,6.49,0,0,1,245.14,40a7.15,7.15,0,0,1-1.5-2.45,9,9,0,0,1-.52-3.14,8.63,8.63,0,0,1,.54-3.08,7.08,7.08,0,0,1,1.54-2.46,7.28,7.28,0,0,1,2.38-1.64,7.59,7.59,0,0,1,3.06-.6,6.93,6.93,0,0,1,3.28.73,6.5,6.5,0,0,1,2.3,1.95,8.11,8.11,0,0,1,1.29,2.79,10.49,10.49,0,0,1,.29,3.28H247.16A4.1,4.1,0,0,0,248.16,38.21Zm4.58-7.75a2.86,2.86,0,0,0-2.21-.8,3.49,3.49,0,0,0-1.61.33,3.15,3.15,0,0,0-1,.81,2.84,2.84,0,0,0-.54,1,5,5,0,0,0-.19,1h6.59A4.7,4.7,0,0,0,252.74,30.46Z"/><path class="cls-2" d="M263.33,27v2h.08a4.69,4.69,0,0,1,2-1.86,5.74,5.74,0,0,1,2.51-.59,6.93,6.93,0,0,1,2.66.44,4,4,0,0,1,1.64,1.23,4.7,4.7,0,0,1,.84,1.91,12,12,0,0,1,.24,2.49v9.07h-4V33.42a5.17,5.17,0,0,0-.57-2.72,2.22,2.22,0,0,0-2-.9,2.78,2.78,0,0,0-2.39,1,5.4,5.4,0,0,0-.74,3.23v7.73h-4V27Z"/><path class="cls-2" d="M275.5,31.54a4.67,4.67,0,0,1,.71-2.36,4.81,4.81,0,0,1,1.6-1.51,6.85,6.85,0,0,1,2.18-.82,12.54,12.54,0,0,1,2.44-.24,15.68,15.68,0,0,1,2.25.16,6.89,6.89,0,0,1,2.08.61,4.07,4.07,0,0,1,1.54,1.27,3.54,3.54,0,0,1,.6,2.15v7.67a14.65,14.65,0,0,0,.11,1.91,3.55,3.55,0,0,0,.4,1.37H285.3c-.07-.23-.13-.46-.18-.7a5.83,5.83,0,0,1-.1-.73,5.32,5.32,0,0,1-2.28,1.4,9.07,9.07,0,0,1-2.68.4,7.33,7.33,0,0,1-2-.26,4.26,4.26,0,0,1-1.59-.8,3.59,3.59,0,0,1-1.07-1.36,4.62,4.62,0,0,1-.39-2,4.35,4.35,0,0,1,.44-2.07,3.9,3.9,0,0,1,1.14-1.3,5.18,5.18,0,0,1,1.6-.72c.6-.16,1.2-.29,1.81-.39s1.21-.17,1.8-.23a10.2,10.2,0,0,0,1.56-.25,2.83,2.83,0,0,0,1.09-.5,1.12,1.12,0,0,0,.37-1,2.09,2.09,0,0,0-.22-1,1.54,1.54,0,0,0-.57-.59,2.1,2.1,0,0,0-.82-.29,6.5,6.5,0,0,0-1-.07,3.12,3.12,0,0,0-1.89.51,2.3,2.3,0,0,0-.79,1.71Zm9.35,3a1.79,1.79,0,0,1-.64.35,6.26,6.26,0,0,1-.83.22l-.93.14c-.32,0-.64.08-1,.14a6.59,6.59,0,0,0-.9.23,2.52,2.52,0,0,0-.77.38,1.86,1.86,0,0,0-.53.62,2,2,0,0,0-.2.94,1.94,1.94,0,0,0,.2.91,1.44,1.44,0,0,0,.54.58,2.08,2.08,0,0,0,.8.3,4.83,4.83,0,0,0,.94.09,3.51,3.51,0,0,0,1.85-.4,2.68,2.68,0,0,0,1-.95,3.17,3.17,0,0,0,.39-1.13c0-.38.07-.69.07-.91Z"/><path class="cls-2" d="M295.17,27v2.74h.05a5,5,0,0,1,.77-1.27,5.29,5.29,0,0,1,2.46-1.64,4.82,4.82,0,0,1,1.48-.23,3.33,3.33,0,0,1,.88.14v3.77a5.23,5.23,0,0,0-.68-.1,7.09,7.09,0,0,0-.77-.05,4.4,4.4,0,0,0-1.88.37,3.2,3.2,0,0,0-1.24,1,3.83,3.83,0,0,0-.67,1.49,7.8,7.8,0,0,0-.2,1.86v6.64h-4.05V27Z"/><path class="cls-2" d="M301.81,24.73V21.39h4.05v3.34ZM305.86,27V41.75h-4.05V27Z"/><path class="cls-2" d="M308.42,31.19a6.75,6.75,0,0,1,3.94-4,8.39,8.39,0,0,1,3.13-.56,8.54,8.54,0,0,1,3.15.56,6.85,6.85,0,0,1,2.41,1.57,6.77,6.77,0,0,1,1.54,2.45,9.75,9.75,0,0,1,0,6.4A6.78,6.78,0,0,1,321.05,40a6.69,6.69,0,0,1-2.41,1.56,8.75,8.75,0,0,1-3.15.54,8.6,8.6,0,0,1-3.13-.54A6.74,6.74,0,0,1,310,40a6.91,6.91,0,0,1-1.54-2.43,9.75,9.75,0,0,1,0-6.4Zm3.68,4.93a4.65,4.65,0,0,0,.58,1.51,3.22,3.22,0,0,0,1.1,1.07,3.43,3.43,0,0,0,1.71.4,3.51,3.51,0,0,0,1.73-.4,3.16,3.16,0,0,0,1.11-1.07,4.65,4.65,0,0,0,.58-1.51,8.25,8.25,0,0,0,.17-1.73,8.42,8.42,0,0,0-.17-1.74,4.48,4.48,0,0,0-.58-1.51,3.2,3.2,0,0,0-2.84-1.48,3.23,3.23,0,0,0-1.71.42,3.38,3.38,0,0,0-1.1,1.06,4.48,4.48,0,0,0-.58,1.51,9.16,9.16,0,0,0-.17,1.74A9,9,0,0,0,312.1,36.12Z"/><path class="cls-1" d="M266.11,57.18V55.7h0a2.42,2.42,0,0,1-.47.69,3.17,3.17,0,0,1-.71.54,4.47,4.47,0,0,1-.84.34,3.48,3.48,0,0,1-.9.12,3.72,3.72,0,0,1-1.62-.33,3.16,3.16,0,0,1-1.15-.89,3.63,3.63,0,0,1-.68-1.31,5.44,5.44,0,0,1-.22-1.58,5.37,5.37,0,0,1,.22-1.57,3.76,3.76,0,0,1,.68-1.32,3.39,3.39,0,0,1,1.15-.89,3.72,3.72,0,0,1,1.62-.33,3.82,3.82,0,0,1,.9.1,2.88,2.88,0,0,1,.81.33,2.71,2.71,0,0,1,.68.53,2.41,2.41,0,0,1,.45.74h0V46.4h1V57.18Zm-5.48-2.7a3.47,3.47,0,0,0,.48,1.07,2.63,2.63,0,0,0,.83.76,2.47,2.47,0,0,0,1.22.29,2.86,2.86,0,0,0,1.34-.29,2.75,2.75,0,0,0,.89-.76,3.27,3.27,0,0,0,.49-1.07,4.81,4.81,0,0,0,.15-1.2,4.93,4.93,0,0,0-.15-1.2,3.22,3.22,0,0,0-.49-1.06,2.63,2.63,0,0,0-.89-.76,2.74,2.74,0,0,0-1.34-.3,2.37,2.37,0,0,0-1.22.3,2.52,2.52,0,0,0-.83.76,3.41,3.41,0,0,0-.48,1.06,4.93,4.93,0,0,0-.15,1.2A4.81,4.81,0,0,0,260.63,54.48Z"/><path class="cls-1" d="M268.87,54.6a2.85,2.85,0,0,0,.48,1,3.12,3.12,0,0,0,.84.73,2.47,2.47,0,0,0,1.22.28,2.51,2.51,0,0,0,1.71-.54,2.8,2.8,0,0,0,.86-1.45h1a3.69,3.69,0,0,1-1.17,2,3.58,3.58,0,0,1-2.4.73,3.92,3.92,0,0,1-1.67-.33,3,3,0,0,1-1.15-.89,3.74,3.74,0,0,1-.65-1.31,5.44,5.44,0,0,1-.22-1.58,5.21,5.21,0,0,1,.22-1.51,4.07,4.07,0,0,1,.65-1.32,3.42,3.42,0,0,1,1.15-.93,3.64,3.64,0,0,1,1.67-.35,3.48,3.48,0,0,1,1.68.37,3.19,3.19,0,0,1,1.13,1,4.15,4.15,0,0,1,.63,1.4,5.84,5.84,0,0,1,.16,1.61h-6.29A4,4,0,0,0,268.87,54.6Zm4.94-2.9a2.75,2.75,0,0,0-.51-.88,2.47,2.47,0,0,0-1.89-.86,2.39,2.39,0,0,0-1.09.24,2.37,2.37,0,0,0-.81.62,2.92,2.92,0,0,0-.53.89,4.1,4.1,0,0,0-.26,1H274A3.31,3.31,0,0,0,273.81,51.7Z"/><path class="cls-1" d="M276.58,46.4V57.18h-1V46.4Z"/><path class="cls-1" d="M286.52,46.4a4.25,4.25,0,0,1,1.38.21,2.9,2.9,0,0,1,1.06.6,2.55,2.55,0,0,1,.68,1,3.38,3.38,0,0,1,.24,1.3,3.35,3.35,0,0,1-.24,1.3,2.48,2.48,0,0,1-.68,1,2.92,2.92,0,0,1-1.06.61,4.55,4.55,0,0,1-1.38.2h-3.94v4.62H281.5V46.4Zm-.23,5.28a2.9,2.9,0,0,0,1.82-.54,2.34,2.34,0,0,0,0-3.32,2.9,2.9,0,0,0-1.82-.54h-3.71v4.4Z"/><path class="cls-1" d="M296.2,57.18V55.77h0A2.72,2.72,0,0,1,295,57a3.37,3.37,0,0,1-1.67.42,3.65,3.65,0,0,1-1.32-.21,2.16,2.16,0,0,1-.89-.58,2.34,2.34,0,0,1-.5-.92,4.61,4.61,0,0,1-.16-1.24v-5h1v5.07a2.41,2.41,0,0,0,.52,1.6,2.16,2.16,0,0,0,1.67.54,2.28,2.28,0,0,0,1.11-.26,2.42,2.42,0,0,0,.76-.7,3.19,3.19,0,0,0,.44-1,4.89,4.89,0,0,0,.14-1.15V49.39h1v7.79Z"/><path class="cls-1" d="M299,54.6a2.76,2.76,0,0,0,1.32,1.72,2.47,2.47,0,0,0,1.22.28,2.51,2.51,0,0,0,1.71-.54,2.87,2.87,0,0,0,.86-1.45h1a3.74,3.74,0,0,1-1.17,2,3.58,3.58,0,0,1-2.4.73,3.92,3.92,0,0,1-1.67-.33,3,3,0,0,1-1.15-.89,3.94,3.94,0,0,1-.66-1.31,5.8,5.8,0,0,1-.21-1.58,5.56,5.56,0,0,1,.21-1.51,4.3,4.3,0,0,1,.66-1.32,3.42,3.42,0,0,1,1.15-.93,3.64,3.64,0,0,1,1.67-.35,3.48,3.48,0,0,1,1.68.37,3.28,3.28,0,0,1,1.13,1,4.15,4.15,0,0,1,.63,1.4,5.84,5.84,0,0,1,.16,1.61H298.8A4,4,0,0,0,299,54.6Zm4.94-2.9a2.75,2.75,0,0,0-.51-.88,2.47,2.47,0,0,0-.81-.62,2.5,2.5,0,0,0-3,.62,2.92,2.92,0,0,0-.53.89,4.1,4.1,0,0,0-.26,1h5.29A3.31,3.31,0,0,0,303.89,51.7Z"/><path class="cls-1" d="M306.64,46.4v4.47h0a2.41,2.41,0,0,1,.45-.74,2.71,2.71,0,0,1,.68-.53,2.82,2.82,0,0,1,.82-.33,3.8,3.8,0,0,1,.89-.1,3.72,3.72,0,0,1,1.62.33,3.39,3.39,0,0,1,1.15.89,3.94,3.94,0,0,1,.68,1.32,5.37,5.37,0,0,1,.22,1.57,5.44,5.44,0,0,1-.22,1.58,3.8,3.8,0,0,1-.68,1.31,3.16,3.16,0,0,1-1.15.89,3.72,3.72,0,0,1-1.62.33,3.65,3.65,0,0,1-1.79-.44,2.54,2.54,0,0,1-1.13-1.25h0v1.48h-.92V46.4ZM312,52.08a3.39,3.39,0,0,0-.47-1.06,2.62,2.62,0,0,0-.83-.76,2.37,2.37,0,0,0-1.22-.3,2.74,2.74,0,0,0-1.34.3,2.54,2.54,0,0,0-.89.76,3,3,0,0,0-.49,1.06,4.93,4.93,0,0,0-.15,1.2,4.81,4.81,0,0,0,.15,1.2,3.08,3.08,0,0,0,.49,1.07,2.65,2.65,0,0,0,.89.76,2.86,2.86,0,0,0,1.34.29,2.47,2.47,0,0,0,1.22-.29,2.75,2.75,0,0,0,.83-.76,3.45,3.45,0,0,0,.47-1.07,4.81,4.81,0,0,0,.15-1.2A4.93,4.93,0,0,0,312,52.08Z"/><path class="cls-1" d="M315,46.4V57.18h-1V46.4Z"/><path class="cls-1" d="M321.19,49.5a3.49,3.49,0,0,1,1.21.89,3.7,3.7,0,0,1,.74,1.3,4.91,4.91,0,0,1,.26,1.59,4.82,4.82,0,0,1-.26,1.59,3.75,3.75,0,0,1-.74,1.31,3.47,3.47,0,0,1-1.21.88,4.32,4.32,0,0,1-3.31,0,3.38,3.38,0,0,1-1.21-.88,3.77,3.77,0,0,1-.75-1.31,4.82,4.82,0,0,1-.25-1.59,4.9,4.9,0,0,1,.25-1.59,3.73,3.73,0,0,1,.75-1.3,3.4,3.4,0,0,1,1.21-.89,4.32,4.32,0,0,1,3.31,0Zm-2.91.75a2.53,2.53,0,0,0-.89.76,3.22,3.22,0,0,0-.54,1.06,4.19,4.19,0,0,0,0,2.43,3.32,3.32,0,0,0,.54,1.06,2.75,2.75,0,0,0,.89.76,2.65,2.65,0,0,0,1.25.28,2.62,2.62,0,0,0,1.25-.28,2.89,2.89,0,0,0,.9-.76,3.54,3.54,0,0,0,.54-1.06,4.19,4.19,0,0,0,0-2.43,3.42,3.42,0,0,0-.54-1.06,2.65,2.65,0,0,0-.9-.76,2.62,2.62,0,0,0-1.25-.29A2.65,2.65,0,0,0,318.28,50.25Z"/><polygon class="cls-3" points="52.06 51.45 59.45 46.11 66.83 51.45 64.02 42.78 71.39 37.41 62.27 37.4 59.45 28.74 56.61 37.4 47.5 37.41 54.87 42.78 52.06 51.45"/><polygon class="cls-4" points="21.25 51.45 28.63 46.11 36.01 51.45 33.21 42.78 40.57 37.41 31.46 37.4 28.63 28.74 25.8 37.4 16.68 37.41 24.05 42.78 21.25 51.45"/><polygon class="cls-5" points="36.65 35.31 43.98 29.9 51.41 35.17 48.53 26.53 55.84 21.09 46.73 21.16 43.82 12.53 41.07 21.21 31.96 21.31 39.37 26.61 36.65 35.31"/></svg>